<svg width="40" height="41" viewBox="0 0 40 41" fill="none" xmlns="http://www.w3.org/2000/svg">
<path d="M28.3337 30.5002C26.4837 30.5002 25.0003 31.9835 25.0003 33.8335C25.0003 34.7176 25.3515 35.5654 25.9766 36.1905C26.6018 36.8156 27.4496 37.1668 28.3337 37.1668C29.2177 37.1668 30.0656 36.8156 30.6907 36.1905C31.3158 35.5654 31.667 34.7176 31.667 33.8335C31.667 32.9494 31.3158 32.1016 30.6907 31.4765C30.0656 30.8514 29.2177 30.5002 28.3337 30.5002ZM1.66699 3.8335V7.16683H5.00033L11.0003 19.8168L8.73366 23.9002C8.48366 24.3668 8.33366 24.9168 8.33366 25.5002C8.33366 26.3842 8.68485 27.2321 9.30997 27.8572C9.93509 28.4823 10.7829 28.8335 11.667 28.8335H31.667V25.5002H12.367C12.2565 25.5002 12.1505 25.4563 12.0724 25.3781C11.9942 25.3 11.9503 25.194 11.9503 25.0835C11.9503 25.0002 11.967 24.9335 12.0003 24.8835L13.5003 22.1668H25.917C27.167 22.1668 28.267 21.4668 28.8337 20.4502L34.8003 9.66683C34.917 9.40016 35.0003 9.11683 35.0003 8.8335C35.0003 8.39147 34.8247 7.96755 34.5122 7.65498C34.1996 7.34242 33.7757 7.16683 33.3337 7.16683H8.68366L7.11699 3.8335M11.667 30.5002C9.81699 30.5002 8.33366 31.9835 8.33366 33.8335C8.33366 34.7176 8.68485 35.5654 9.30997 36.1905C9.93509 36.8156 10.7829 37.1668 11.667 37.1668C12.551 37.1668 13.3989 36.8156 14.024 36.1905C14.6491 35.5654 15.0003 34.7176 15.0003 33.8335C15.0003 32.9494 14.6491 32.1016 14.024 31.4765C13.3989 30.8514 12.551 30.5002 11.667 30.5002Z" fill="black"/>
</svg>
