<svg width="40" height="40" viewBox="0 0 40 40" fill="none" xmlns="http://www.w3.org/2000/svg">
<g clip-path="url(#clip0_229_1099)">
<path fill-rule="evenodd" clip-rule="evenodd" d="M24.0356 5.12181C24.3049 4.98501 24.6166 4.96246 24.9022 5.05911C25.1878 5.15575 25.4239 5.36369 25.5587 5.63721L28.3037 11.2159C28.9507 11.2477 29.5411 11.3021 30.0751 11.379C31.6739 11.6113 32.9972 12.1129 33.9374 13.2945C34.8776 14.4761 35.0835 15.8961 34.973 17.5331C34.867 19.1193 34.443 21.1209 33.9162 23.6211L33.2333 26.8627C32.8775 28.5505 32.5884 29.9182 32.225 30.986C31.8465 32.1014 31.3469 33.0168 30.496 33.7169C29.6451 34.4169 28.658 34.72 27.5073 34.8631C26.4021 35 25.0243 35 23.3286 35H16.6729C14.9742 35 13.5979 35 12.4927 34.8631C11.342 34.72 10.3549 34.4169 9.50402 33.7169C8.65313 33.0168 8.15351 32.1014 7.775 30.9875C7.41163 29.9182 7.12397 28.5505 6.76666 26.8643L6.08383 23.6226C5.55695 21.1209 5.13454 19.1193 5.02704 17.5331C4.91652 15.8961 5.12243 14.4776 6.06264 13.2945C7.00133 12.1129 8.32459 11.6113 9.9234 11.379C10.4584 11.3031 11.0488 11.2487 11.6948 11.2159L14.4443 5.63721C14.5802 5.36586 14.8162 5.1601 15.1007 5.06477C15.3853 4.96944 15.6954 4.99226 15.9635 5.12826C16.2315 5.26427 16.4359 5.50243 16.5319 5.79085C16.6279 6.07927 16.6079 6.39456 16.4761 6.66803L14.2656 11.1559C14.8167 11.1528 15.3966 11.1518 16.0052 11.1528H23.9963C24.6049 11.1528 25.1848 11.1539 25.7359 11.1559L23.5269 6.66803C23.3923 6.39442 23.3701 6.07768 23.4652 5.78745C23.5603 5.49722 23.765 5.25724 24.0341 5.12027M10.5108 13.6268L9.90069 14.8668C9.83271 15.0026 9.79184 15.1506 9.78043 15.3024C9.76903 15.4543 9.78731 15.6069 9.83423 15.7516C9.88116 15.8962 9.95579 16.0299 10.0538 16.1451C10.1519 16.2603 10.2714 16.3546 10.4054 16.4227C10.5395 16.4907 10.6855 16.5311 10.835 16.5415C10.9846 16.5519 11.1346 16.5321 11.2766 16.4833C11.4185 16.4345 11.5496 16.3576 11.6622 16.2571C11.7747 16.1566 11.8666 16.0344 11.9325 15.8976L13.1241 13.476C13.987 13.4606 14.9712 13.4591 16.0976 13.4591H23.9039C25.0303 13.4591 26.0145 13.4591 26.8775 13.4745L28.069 15.8976C28.2049 16.169 28.4409 16.3748 28.7254 16.4701C29.01 16.5654 29.3201 16.5426 29.5882 16.4066C29.8563 16.2706 30.0606 16.0324 30.1566 15.744C30.2526 15.4556 30.2326 15.1403 30.1008 14.8668L29.4907 13.6268L29.7541 13.6622C31.0925 13.8576 31.7481 14.213 32.172 14.7438C32.5959 15.2761 32.7988 16.0038 32.7065 17.3746C32.6126 18.7747 32.228 20.6148 31.6769 23.2287L31.0259 26.3058C30.6519 28.0828 30.39 29.3121 30.0781 30.2321C29.7753 31.1244 29.4664 31.5952 29.0683 31.9214C28.6716 32.2476 28.1523 32.4568 27.2333 32.5707C26.2809 32.6891 25.0425 32.6907 23.2544 32.6907H16.7456C14.9591 32.6907 13.7206 32.6891 12.7683 32.5707C11.8477 32.4568 11.3299 32.2476 10.9333 31.9214C10.5351 31.5952 10.2247 31.1229 9.9234 30.2321C9.61 29.3121 9.34807 28.0828 8.97411 26.3058L8.32459 23.2287C7.77348 20.6132 7.38892 18.7762 7.29505 17.3746C7.2027 16.0038 7.40709 15.2761 7.8295 14.7438C8.25343 14.213 8.909 13.8576 10.2474 13.6622L10.5108 13.6268Z" fill="black"/>
</g>
<defs>
<clipPath id="clip0_229_1099">
<rect width="40" height="40" fill="white"/>
</clipPath>
</defs>
</svg>
