<svg width="30" height="30" viewBox="0 0 30 30" fill="none" xmlns="http://www.w3.org/2000/svg">
<path d="M13.75 21.875C13.5014 21.875 13.2629 21.9738 13.0871 22.1496C12.9113 22.3254 12.8125 22.5639 12.8125 22.8125C12.8125 23.0611 12.9113 23.2996 13.0871 23.4754C13.2629 23.6512 13.5014 23.75 13.75 23.75H16.25C16.4986 23.75 16.7371 23.6512 16.9129 23.4754C17.0887 23.2996 17.1875 23.0611 17.1875 22.8125C17.1875 22.5639 17.0887 22.3254 16.9129 22.1496C16.7371 21.9738 16.4986 21.875 16.25 21.875H13.75Z" fill="black"/>
<path fill-rule="evenodd" clip-rule="evenodd" d="M10 2.5C9.25408 2.5 8.53871 2.79632 8.01126 3.32376C7.48382 3.85121 7.1875 4.56658 7.1875 5.3125V24.6875C7.1875 25.4334 7.48382 26.1488 8.01126 26.6762C8.53871 27.2037 9.25408 27.5 10 27.5H20C20.7459 27.5 21.4613 27.2037 21.9887 26.6762C22.5162 26.1488 22.8125 25.4334 22.8125 24.6875V5.3125C22.8125 4.56658 22.5162 3.85121 21.9887 3.32376C21.4613 2.79632 20.7459 2.5 20 2.5H10ZM9.0625 5.3125C9.0625 5.06386 9.16127 4.8254 9.33709 4.64959C9.5129 4.47377 9.75136 4.375 10 4.375H20C20.2486 4.375 20.4871 4.47377 20.6629 4.64959C20.8387 4.8254 20.9375 5.06386 20.9375 5.3125V24.6875C20.9375 24.9361 20.8387 25.1746 20.6629 25.3504C20.4871 25.5262 20.2486 25.625 20 25.625H10C9.75136 25.625 9.5129 25.5262 9.33709 25.3504C9.16127 25.1746 9.0625 24.9361 9.0625 24.6875V5.3125Z" fill="black"/>
</svg>
