<svg width="40" height="40" viewBox="0 0 40 40" fill="none" xmlns="http://www.w3.org/2000/svg">
<path d="M26.7109 6.7998C28.963 6.79991 31.122 7.70472 32.7139 9.31348C34.3057 10.9223 35.2002 13.1037 35.2002 15.3779C35.2001 17.747 34.2453 19.8705 32.7109 21.4375V21.4385L20.1426 34.1406L20 34.2842L19.8574 34.1406L7.28906 21.4385V21.4375C5.75471 19.8705 4.79987 17.747 4.7998 15.3779C4.7998 13.1037 5.69429 10.9223 7.28613 9.31348C8.87795 7.70472 11.037 6.79991 13.2891 6.7998L13.54 6.80273C14.7962 6.83715 16.0305 7.155 17.1514 7.7334C18.2665 8.3089 19.2399 9.12725 20.002 10.1279C21.549 8.09726 23.9783 6.7998 26.7109 6.7998ZM26.2812 8.80957C25.2832 8.87478 24.3111 9.17248 23.4424 9.68164C22.4497 10.2635 21.6272 11.1014 21.0586 12.1094L21.001 12.2109H18.999L18.9414 12.1094C17.8226 10.1268 15.7084 8.7959 13.2891 8.7959C11.5632 8.79601 9.90755 9.48867 8.68652 10.7227C7.46533 11.9568 6.7793 13.6316 6.7793 15.3779V15.3789C6.77521 16.2419 6.94047 17.0971 7.2666 17.8945C7.55194 18.5922 7.95519 19.2334 8.45703 19.79L8.67871 20.0234V20.0244L20 31.4502L31.3213 20.0244C32.4552 18.8624 33.2206 17.1885 33.2207 15.3779C33.2207 13.6316 32.5347 11.9568 31.3135 10.7227C30.0925 9.48867 28.4368 8.79601 26.7109 8.7959H26.71L26.2812 8.80957Z" fill="black" stroke="black" stroke-width="0.4"/>
</svg>
