<svg width="166" height="40" viewBox="0 0 166 40" fill="none" xmlns="http://www.w3.org/2000/svg">
<path d="M10.7898 39H0.136364L12.1392 2.63636H25.6335L37.6364 39H26.983L19.0284 12.6506H18.7443L10.7898 39ZM8.80114 24.6534H28.8295V32.0398H8.80114V24.6534ZM41.2807 39V11.7273H50.5847V16.9119H50.8688C51.437 15.2074 52.4076 13.858 53.7807 12.8636C55.1538 11.8693 56.7873 11.3722 58.6813 11.3722C60.5989 11.3722 62.2502 11.8812 63.6351 12.8991C65.0201 13.9053 65.8546 15.2429 66.1387 16.9119H66.4228C66.8844 15.2429 67.8669 13.9053 69.3702 12.8991C70.8735 11.8812 72.6373 11.3722 74.6614 11.3722C77.2774 11.3722 79.3962 12.2126 81.0179 13.8935C82.6515 15.5743 83.4682 17.8116 83.4682 20.6051V39H73.6671V23.0909C73.6671 21.8954 73.3652 20.9602 72.7615 20.2855C72.1578 19.599 71.347 19.2557 70.329 19.2557C69.3229 19.2557 68.5239 19.599 67.932 20.2855C67.352 20.9602 67.062 21.8954 67.062 23.0909V39H57.687V23.0909C57.687 21.8954 57.3851 20.9602 56.7814 20.2855C56.1777 19.599 55.3669 19.2557 54.3489 19.2557C53.6742 19.2557 53.0942 19.4096 52.6088 19.7173C52.1235 20.0251 51.7447 20.469 51.4725 21.049C51.2121 21.6172 51.0819 22.2978 51.0819 23.0909V39H41.2807ZM101.37 39.4972C98.4585 39.4972 95.949 38.9408 93.842 37.8281C91.7468 36.7036 90.131 35.0937 88.9947 32.9986C87.8701 30.8916 87.3079 28.3703 87.3079 25.4347C87.3079 22.6174 87.8761 20.1553 89.0124 18.0483C90.1488 15.9413 91.7527 14.3018 93.8242 13.13C95.8957 11.9581 98.3401 11.3722 101.157 11.3722C103.217 11.3722 105.081 11.6918 106.75 12.331C108.419 12.9702 109.846 13.8994 111.029 15.1186C112.213 16.326 113.125 17.7938 113.764 19.522C114.403 21.2502 114.723 23.1974 114.723 25.3636V27.6364H90.3619V22.2386H105.703C105.691 21.4574 105.49 20.7708 105.099 20.179C104.72 19.5753 104.205 19.1077 103.554 18.7763C102.915 18.433 102.187 18.2614 101.37 18.2614C100.577 18.2614 99.8493 18.433 99.1864 18.7763C98.5236 19.1077 97.9909 19.5694 97.5884 20.1612C97.1978 20.7531 96.9906 21.4455 96.967 22.2386V28.0625C96.967 28.9384 97.1505 29.7197 97.5174 30.4062C97.8844 31.0928 98.4111 31.6314 99.0977 32.022C99.7842 32.4126 100.613 32.608 101.583 32.608C102.258 32.608 102.874 32.5133 103.43 32.3239C103.998 32.1345 104.484 31.8622 104.886 31.5071C105.288 31.1402 105.584 30.7022 105.774 30.1932H114.723C114.415 32.0871 113.687 33.7325 112.539 35.1293C111.391 36.5142 109.869 37.5914 107.975 38.3608C106.093 39.1184 103.892 39.4972 101.37 39.4972ZM97.7482 8.31818L101.157 0.363634H109.538L104.211 8.31818H97.7482ZM118.722 39V11.7273H128.239V16.9119H128.523C129.02 14.9943 129.808 13.5916 130.885 12.7038C131.974 11.8161 133.246 11.3722 134.702 11.3722C135.128 11.3722 135.549 11.4077 135.963 11.4787C136.389 11.5379 136.797 11.6267 137.188 11.745V20.108C136.703 19.9422 136.105 19.8179 135.395 19.7351C134.684 19.6522 134.075 19.6108 133.566 19.6108C132.607 19.6108 131.743 19.8298 130.974 20.2678C130.216 20.6939 129.618 21.2976 129.18 22.0788C128.742 22.8482 128.523 23.7538 128.523 24.7955V39H118.722ZM151.907 39.4972C148.996 39.4972 146.486 38.9408 144.379 37.8281C142.284 36.7036 140.668 35.0937 139.532 32.9986C138.407 30.8916 137.845 28.3703 137.845 25.4347C137.845 22.6174 138.413 20.1553 139.55 18.0483C140.686 15.9413 142.29 14.3018 144.361 13.13C146.433 11.9581 148.877 11.3722 151.694 11.3722C153.754 11.3722 155.618 11.6918 157.287 12.331C158.956 12.9702 160.383 13.8994 161.567 15.1186C162.75 16.326 163.662 17.7938 164.301 19.522C164.94 21.2502 165.26 23.1974 165.26 25.3636V27.6364H140.899V22.2386H156.24C156.228 21.4574 156.027 20.7708 155.636 20.179C155.257 19.5753 154.742 19.1077 154.091 18.7763C153.452 18.433 152.724 18.2614 151.907 18.2614C151.114 18.2614 150.386 18.433 149.724 18.7763C149.061 19.1077 148.528 19.5694 148.126 20.1612C147.735 20.7531 147.528 21.4455 147.504 22.2386V28.0625C147.504 28.9384 147.688 29.7197 148.055 30.4062C148.421 31.0928 148.948 31.6314 149.635 32.022C150.321 32.4126 151.15 32.608 152.121 32.608C152.795 32.608 153.411 32.5133 153.967 32.3239C154.535 32.1345 155.021 31.8622 155.423 31.5071C155.826 31.1402 156.122 30.7022 156.311 30.1932H165.26C164.952 32.0871 164.224 33.7325 163.076 35.1293C161.928 36.5142 160.407 37.5914 158.513 38.3608C156.631 39.1184 154.429 39.4972 151.907 39.4972Z" fill="black"/>
</svg>
