<svg width="40" height="41" viewBox="0 0 40 41" fill="none" xmlns="http://www.w3.org/2000/svg">
<path fill-rule="evenodd" clip-rule="evenodd" d="M13.3333 12.1667C13.3333 10.3986 14.0357 8.70286 15.286 7.45262C16.5362 6.20238 18.2319 5.5 20 5.5C21.7681 5.5 23.4638 6.20238 24.714 7.45262C25.9643 8.70286 26.6667 10.3986 26.6667 12.1667C26.6667 13.9348 25.9643 15.6305 24.714 16.8807C23.4638 18.131 21.7681 18.8333 20 18.8333C18.2319 18.8333 16.5362 18.131 15.286 16.8807C14.0357 15.6305 13.3333 13.9348 13.3333 12.1667ZM13.3333 22.1667C11.1232 22.1667 9.00358 23.0446 7.44078 24.6074C5.87797 26.1702 5 28.2899 5 30.5C5 31.8261 5.52678 33.0979 6.46447 34.0355C7.40215 34.9732 8.67392 35.5 10 35.5H30C31.3261 35.5 32.5979 34.9732 33.5355 34.0355C34.4732 33.0979 35 31.8261 35 30.5C35 28.2899 34.122 26.1702 32.5592 24.6074C30.9964 23.0446 28.8768 22.1667 26.6667 22.1667H13.3333Z" fill="black"/>
</svg>
